# xmcd
#
# Track frame offsets:
#	150
#	16410
#	26095
#	37868
#	49083
#	59368
#	68640
#	79415
#	89733
#	100943
#	112573
#	123893
#	134310
#	149535
#	160030
#	173778
#	185110
#	196238
#	207293
#	217315
#	228105
#	239503
#	251673
#	258618
#	271573
#	282673
#	293773
#	306060
#	317303
#	333720
#	345900
#
# Disc length: 4657 seconds
#
# Revision: 1
# Processed by: cddbd v1.5.2PL0 Copyright (c) Steve Scherf et al.
# Submitted via: audiograbber 1.83.01
#
DISCID=c7122f1f
DTITLE=Various Artist - Legends of Doo-Wop/Volume One
DYEAR=1900
DGENRE=
TTITLE0=Spaniels - Peace of Mind
TTITLE1=Twilights - Be My Girl
TTITLE2=Jesters - So Strange
TTITLE3=Decals - Stars in the Blue
TTITLE4=Squires - Sindy
TTITLE5=Unknowns - You and me
TTITLE6=Fascinations - It's Midnight
TTITLE7=Performers - I'll Make you Understand
TTITLE8=Collegians - Zoom, Zoom, Zoom
TTITLE9=Excels - Baby Doll
TTITLE10=Paragons - So you will know
TTITLE11=Dubs - Have some fun
TTITLE12=Mastertones - Tell Me
TTITLE13=Mistakes - Chapel Bells
TTITLE14=Spaniels - The Bells Ring Out
TTITLE15=Dubs - Darling (My Darling)
TTITLE16=Pearls - A Tree In The Meadow
TTITLE17=Aqya-Nites - Christie
TTITLE18=Shells - Deep In My Heart
TTITLE19=Chavelles - Valley of Love
TTITLE20=Mellows - Moon of Silver
TTITLE21=Quinns - Oh Starlight
TTITLE22=Chryslers - Soemone Up There
TTITLE23=Pharotones - Fooling Around
TTITLE24=Carribeans - Wonderland
TTITLE25=Decals - A Wonderful Day
TTITLE26=Del-Larks - I Will Never Forget
TTITLE27=Valchords - Candy Store Love
TTITLE28=Moonglows - In My Diary
TTITLE29=Spaniels - Danny Boy
TTITLE30=Unkown Artist - Bonus Track
EXTD=
EXTT0=
EXTT1=
EXTT2=
EXTT3=
EXTT4=
EXTT5=
EXTT6=
EXTT7=
EXTT8=
EXTT9=
EXTT10=
EXTT11=
EXTT12=
EXTT13=
EXTT14=
EXTT15=
EXTT16=
EXTT17=
EXTT18=
EXTT19=
EXTT20=
EXTT21=
EXTT22=
EXTT23=
EXTT24=
EXTT25=
EXTT26=
EXTT27=
EXTT28=
EXTT29=
EXTT30=
PLAYORDER=
